<svg width="240" height="34" viewBox="0 0 240 34" fill="none" xmlns="http://www.w3.org/2000/svg">
<path d="M15.95 7.07C14.83 7.07 13.7217 7.23333 12.625 7.56C11.5283 7.86333 10.455 8.23667 9.405 8.68L7.725 4.41C8.96167 3.87333 10.2683 3.45333 11.645 3.15C13.0217 2.82333 14.4917 2.66 16.055 2.66C17.8983 2.66 19.5317 2.95167 20.955 3.535C22.4017 4.095 23.615 4.935 24.595 6.055C25.5983 7.15167 26.3567 8.505 26.87 10.115C27.4067 11.7017 27.675 13.51 27.675 15.54C27.675 18.1067 27.2433 20.3583 26.38 22.295C25.5167 24.2083 24.1867 25.7017 22.39 26.775C20.6167 27.825 18.3417 28.35 15.565 28.35C14.1417 28.35 12.8467 28.245 11.68 28.035C10.5367 27.825 9.37 27.4983 8.18 27.055V22.61C9.51 23.03 10.735 23.3567 11.855 23.59C12.9983 23.8233 14.13 23.94 15.25 23.94C16.3233 23.94 17.2683 23.8117 18.085 23.555C18.925 23.275 19.625 22.8783 20.185 22.365C20.7683 21.8283 21.2233 21.1633 21.55 20.37C21.8767 19.5533 22.0633 18.62 22.11 17.57H11.26V13.23H22.075C22.0517 12.25 21.8883 11.3867 21.585 10.64C21.2817 9.87 20.8617 9.22833 20.325 8.715C19.7883 8.17833 19.1467 7.77 18.4 7.49C17.6767 7.21 16.86 7.07 15.95 7.07Z" fill="white"/>
<path d="M32.8681 10.7239L32.868 10.7249C33.087 10.7302 33.297 10.7986 33.4766 10.9199C33.656 11.041 33.7967 11.2084 33.8905 11.4001C33.9843 11.5918 34.0297 11.8045 34.0245 12.017C34.0193 12.2286 33.9632 12.4372 33.8608 12.6234L33.8618 12.6244L31.9893 16.0513L34.1087 16.1043C34.3469 16.1103 34.5739 16.1919 34.7624 16.3327C34.9503 16.4731 35.0908 16.6657 35.1746 16.8813C35.2583 17.0967 35.2838 17.332 35.2504 17.5601C35.2169 17.7881 35.1249 18.0062 34.9797 18.1873L27.171 27.9246L27.1719 27.9256C26.9966 28.145 26.7498 28.3014 26.4676 28.3534C26.1842 28.4056 25.8958 28.3467 25.655 28.1933C25.4159 28.0411 25.2427 27.809 25.1525 27.5458C25.0624 27.283 25.0567 26.9956 25.1358 26.7297L26.9141 20.746L24.3661 20.6822C24.1534 20.6768 23.9491 20.6107 23.7729 20.4954C23.597 20.3803 23.4566 20.2212 23.3604 20.0376C23.2643 19.8543 23.2135 19.6499 23.2102 19.4438C23.2069 19.2378 23.251 19.0317 23.3404 18.8453L26.9681 11.2942C27.0657 11.0909 27.216 10.9141 27.4077 10.7894C27.6 10.6643 27.825 10.5976 28.0571 10.6034L32.8681 10.7239ZM26.3145 18.2018L28.5531 18.2579C28.7476 18.2627 28.9359 18.318 29.102 18.4162C29.2679 18.5143 29.4055 18.6515 29.5073 18.8122C29.6089 18.9728 29.6735 19.1543 29.6982 19.3416C29.7228 19.5285 29.7067 19.7194 29.6529 19.9002L29.6539 19.9012L29.1632 21.5506L31.555 18.5695L29.9217 18.5286L29.9217 18.5276C29.7028 18.5224 29.4928 18.4539 29.3132 18.3326C29.1338 18.2115 28.9921 18.0441 28.8983 17.8524C28.8045 17.6607 28.76 17.448 28.7653 17.2356C28.7705 17.0232 28.8259 16.813 28.929 16.6262L30.8005 13.2013L28.7416 13.1497L26.3145 18.2018Z" fill="white" stroke="#131032"/>
<path d="M40.844 11.992V18.236H48.992V11.992H51.456V27H48.992V20.308H40.844V27H38.38V11.992H40.844ZM63.9641 11.712C65.2521 11.712 66.3535 11.992 67.2681 12.552C68.2015 13.112 68.9108 13.9053 69.3961 14.932C69.9001 15.94 70.1521 17.1253 70.1521 18.488V19.972H59.8761C59.9135 21.6707 60.3428 22.968 61.1641 23.864C62.0041 24.7413 63.1708 25.18 64.6641 25.18C65.6161 25.18 66.4561 25.096 67.1841 24.928C67.9308 24.7413 68.6961 24.48 69.4801 24.144V26.3C68.7148 26.636 67.9588 26.8787 67.2121 27.028C66.4655 27.196 65.5788 27.28 64.5521 27.28C63.1335 27.28 61.8735 26.9907 60.7721 26.412C59.6895 25.8333 58.8401 24.9747 58.2241 23.836C57.6268 22.6787 57.3281 21.2693 57.3281 19.608C57.3281 17.9653 57.5988 16.556 58.1401 15.38C58.7001 14.204 59.4748 13.2987 60.4641 12.664C61.4721 12.0293 62.6388 11.712 63.9641 11.712ZM63.9361 13.728C62.7601 13.728 61.8268 14.1107 61.1361 14.876C60.4641 15.6227 60.0628 16.668 59.9321 18.012H67.5761C67.5761 17.1533 67.4455 16.4067 67.1841 15.772C66.9228 15.1373 66.5215 14.6427 65.9801 14.288C65.4575 13.9147 64.7761 13.728 63.9361 13.728ZM83.0728 11.712C84.9208 11.712 86.4048 12.356 87.5248 13.644C88.6635 14.932 89.2328 16.8733 89.2328 19.468C89.2328 21.1667 88.9715 22.604 88.4488 23.78C87.9448 24.9373 87.2261 25.8147 86.2928 26.412C85.3781 26.9907 84.2955 27.28 83.0448 27.28C82.2795 27.28 81.5981 27.1773 81.0008 26.972C80.4035 26.7667 79.8901 26.5053 79.4608 26.188C79.0501 25.852 78.6955 25.488 78.3968 25.096H78.2288C78.2661 25.4133 78.3035 25.8147 78.3408 26.3C78.3781 26.7853 78.3968 27.2053 78.3968 27.56V33.72H75.9328V11.992H77.9488L78.2848 14.036H78.3968C78.6955 13.6067 79.0501 13.2147 79.4608 12.86C79.8901 12.5053 80.3941 12.2253 80.9728 12.02C81.5701 11.8147 82.2701 11.712 83.0728 11.712ZM82.6248 13.784C81.6168 13.784 80.8048 13.98 80.1888 14.372C79.5728 14.7453 79.1248 15.3147 78.8448 16.08C78.5648 16.8453 78.4155 17.816 78.3968 18.992V19.468C78.3968 20.7 78.5275 21.7453 78.7888 22.604C79.0501 23.4627 79.4888 24.116 80.1048 24.564C80.7395 25.012 81.5981 25.236 82.6808 25.236C83.5955 25.236 84.3421 24.984 84.9208 24.48C85.5181 23.976 85.9568 23.2947 86.2368 22.436C86.5355 21.5587 86.6848 20.56 86.6848 19.44C86.6848 17.7227 86.3488 16.3507 85.6768 15.324C85.0235 14.2973 84.0061 13.784 82.6248 13.784ZM106.263 11.992V24.928H108.447V32.208H106.067V27H95.6234V32.208H93.2714V24.928H94.4754C95.334 23.7333 96.0434 22.436 96.6034 21.036C97.182 19.6173 97.6114 18.1427 97.8914 16.612C98.19 15.0627 98.3487 13.5227 98.3674 11.992H106.263ZM100.551 13.924C100.477 15.1933 100.281 16.5093 99.9634 17.872C99.646 19.216 99.2354 20.504 98.7314 21.736C98.246 22.968 97.6767 24.032 97.0234 24.928H103.883V13.924H100.551ZM131.353 11.992L125.165 19.272L131.885 27H129.085L122.589 19.384V27H120.293V19.384L113.797 27H110.997L117.717 19.272L111.529 11.992H114.217L120.293 19.272V11.992H122.589V19.272L128.693 11.992H131.353ZM138.633 21.148C138.633 21.316 138.624 21.5587 138.605 21.876C138.605 22.1747 138.596 22.5013 138.577 22.856C138.558 23.192 138.54 23.5187 138.521 23.836C138.502 24.1347 138.484 24.3773 138.465 24.564L146.501 11.992H149.525V27H147.229V18.152C147.229 17.8533 147.229 17.4613 147.229 16.976C147.248 16.4907 147.266 16.0147 147.285 15.548C147.304 15.0627 147.322 14.6987 147.341 14.456L139.361 27H136.309V11.992H138.633V21.148ZM167.685 27H165.193V14.036H160.769C160.582 16.4067 160.349 18.432 160.069 20.112C159.789 21.7733 159.434 23.1267 159.005 24.172C158.576 25.2173 158.062 25.9827 157.465 26.468C156.868 26.9533 156.168 27.196 155.365 27.196C155.122 27.196 154.88 27.1773 154.637 27.14C154.413 27.1213 154.226 27.0747 154.077 27V25.152C154.189 25.1893 154.31 25.2173 154.441 25.236C154.572 25.2547 154.702 25.264 154.833 25.264C155.244 25.264 155.617 25.096 155.953 24.76C156.289 24.424 156.588 23.9107 156.849 23.22C157.129 22.5293 157.381 21.6613 157.605 20.616C157.829 19.552 158.025 18.3013 158.193 16.864C158.361 15.4267 158.51 13.8027 158.641 11.992H167.685V27ZM176.733 21.148C176.733 21.316 176.723 21.5587 176.705 21.876C176.705 22.1747 176.695 22.5013 176.677 22.856C176.658 23.192 176.639 23.5187 176.621 23.836C176.602 24.1347 176.583 24.3773 176.565 24.564L184.601 11.992H187.625V27H185.329V18.152C185.329 17.8533 185.329 17.4613 185.329 16.976C185.347 16.4907 185.366 16.0147 185.385 15.548C185.403 15.0627 185.422 14.6987 185.441 14.456L177.461 27H174.409V11.992H176.733V21.148ZM205.505 11.992V24.928H207.689V32.208H205.309V27H194.865V32.208H192.513V24.928H193.717C194.575 23.7333 195.285 22.436 195.845 21.036C196.423 19.6173 196.853 18.1427 197.133 16.612C197.431 15.0627 197.59 13.5227 197.609 11.992H205.505ZM199.793 13.924C199.718 15.1933 199.522 16.5093 199.205 17.872C198.887 19.216 198.477 20.504 197.973 21.736C197.487 22.968 196.918 24.032 196.265 24.928H203.125V13.924H199.793ZM218.61 27.28C217.285 27.28 216.1 27.0093 215.054 26.468C214.028 25.9267 213.216 25.0867 212.618 23.948C212.04 22.8093 211.75 21.3533 211.75 19.58C211.75 17.732 212.058 16.2293 212.674 15.072C213.29 13.9147 214.121 13.0653 215.166 12.524C216.23 11.9827 217.434 11.712 218.778 11.712C219.544 11.712 220.281 11.796 220.99 11.964C221.7 12.1133 222.278 12.3 222.726 12.524L221.97 14.568C221.522 14.4 221 14.2413 220.402 14.092C219.805 13.9427 219.245 13.868 218.722 13.868C217.714 13.868 216.884 14.0827 216.23 14.512C215.577 14.9413 215.092 15.576 214.774 16.416C214.457 17.256 214.298 18.3013 214.298 19.552C214.298 20.7467 214.457 21.764 214.774 22.604C215.092 23.444 215.568 24.0787 216.202 24.508C216.837 24.9373 217.63 25.152 218.582 25.152C219.404 25.152 220.122 25.068 220.738 24.9C221.373 24.732 221.952 24.5267 222.474 24.284V26.468C221.97 26.7293 221.41 26.9253 220.794 27.056C220.197 27.2053 219.469 27.28 218.61 27.28Z" fill="white"/>
</svg>
